grf
version=1
nRows=11
nColumns=37
inDegrees=no
endheader
time	ground_force_1_vx	ground_force_1_vy	ground_force_1_vz	ground_force_1_px	ground_force_1_py	ground_force_1_pz	ground_moment_1_mx	ground_moment_1_my	ground_moment_1_mz	ground_force_2_vx	ground_force_2_vy	ground_force_2_vz	ground_force_2_px	ground_force_2_py	ground_force_2_pz	ground_moment_2_mx	ground_moment_2_my	ground_moment_2_mz	ground_force_3_vx	ground_force_3_vy	ground_force_3_vz	ground_force_3_px	ground_force_3_py	ground_force_3_pz	ground_moment_3_mx	ground_moment_3_my	ground_moment_3_mz	ground_force_4_vx	ground_force_4_vy	ground_force_4_vz	ground_force_4_px	ground_force_4_py	ground_force_4_pz	ground_moment_4_mx	ground_moment_4_my	ground_moment_4_mz
      0.00000000	      0.00000000	     -0.00000000	      0.00000000	      0.00000000	      0.00000000	      0.00000000	      0.00000000	      0.00000000	      0.00000000	     -1.40559924	     39.01736832	   -471.40341187	   -286.56258276	  -1046.79081018	      0.00000000	      0.00000000	      0.00000000	   2823.10137157	      1.06452598	    -39.30311212	   -429.19451904	   -288.08818860	   -702.80406161	      0.00000000	      0.00000000	     -0.00000000	  -3525.58219584	      0.00000000	     -0.00000000	      0.00000000	      0.00000000	      0.00000000	      0.00000000	      0.00000000	      0.00000000	      0.00000000
      0.01000000	      0.00000000	     -0.00000000	      0.00000000	      0.00000000	      0.00000000	      0.00000000	      0.00000000	      0.00000000	      0.00000000	     -1.33560276	     38.90605927	   -468.40112305	   -286.15822401	  -1045.07140627	      0.00000000	      0.00000000	      0.00000000	   2835.58778913	      1.15323675	    -39.47919474	   -429.71539307	   -287.41397778	   -703.01855828	      0.00000000	      0.00000000	     -0.00000000	  -3445.32249095	      0.00000000	     -0.00000000	      0.00000000	      0.00000000	      0.00000000	      0.00000000	      0.00000000	      0.00000000	      0.00000000
      0.02000000	      0.00000000	     -0.00000000	      0.00000000	      0.00000000	      0.00000000	      0.00000000	      0.00000000	      0.00000000	      0.00000000	     -1.40462399	     39.14920807	   -470.17254639	   -286.27974713	  -1047.01349446	      0.00000000	      0.00000000	      0.00000000	   2876.91162902	      0.99826470	    -39.25952920	   -430.93719482	   -287.43466459	   -701.89713380	      0.00000000	      0.00000000	     -0.00000000	  -3534.38230844	      0.00000000	     -0.00000000	      0.00000000	      0.00000000	      0.00000000	      0.00000000	      0.00000000	      0.00000000	      0.00000000
      0.03000000	      0.00000000	     -0.00000000	      0.00000000	      0.00000000	      0.00000000	      0.00000000	      0.00000000	      0.00000000	      0.00000000	     -1.42736816	     39.32709885	   -471.05151367	   -286.89981119	  -1046.99141714	      0.00000000	      0.00000000	      0.00000000	   2957.34025064	      0.88710440	    -39.41394432	   -429.90066528	   -287.69212569	   -702.71128713	      0.00000000	      0.00000000	     -0.00000000	  -3486.12873926	      0.00000000	     -0.00000000	      0.00000000	      0.00000000	      0.00000000	      0.00000000	      0.00000000	      0.00000000	      0.00000000
      0.04000000	      0.00000000	     -0.00000000	      0.00000000	      0.00000000	      0.00000000	      0.00000000	      0.00000000	      0.00000000	      0.00000000	     -1.29488766	     38.94998932	   -470.34472656	   -286.55023846	  -1046.07385084	      0.00000000	      0.00000000	      0.00000000	   2988.21895221	      0.99848950	    -39.54751977	   -432.42037964	   -287.74557696	   -701.68235290	      0.00000000	      0.00000000	     -0.00000000	  -3409.51780522	      0.00000000	     -0.00000000	      0.00000000	      0.00000000	      0.00000000	      0.00000000	      0.00000000	      0.00000000	      0.00000000
      0.05000000	      0.00000000	     -0.00000000	      0.00000000	      0.00000000	      0.00000000	      0.00000000	      0.00000000	      0.00000000	      0.00000000	     -1.87665820	     38.99617004	   -470.97186279	   -286.20852747	  -1046.32428827	      0.00000000	      0.00000000	      0.00000000	   2790.04774045	      0.86428915	    -39.74222191	   -433.10751343	   -287.98493673	   -702.33316831	      0.00000000	      0.00000000	     -0.00000000	  -3441.95704332	      0.00000000	     -0.00000000	      0.00000000	      0.00000000	      0.00000000	      0.00000000	      0.00000000	      0.00000000	      0.00000000
      0.06000000	      0.00000000	     -0.00000000	      0.00000000	      0.00000000	      0.00000000	      0.00000000	      0.00000000	      0.00000000	      0.00000000	     -1.54353893	     38.93049622	   -470.94332886	   -286.46662508	  -1045.22196647	      0.00000000	      0.00000000	      0.00000000	   2748.09302688	      1.02472469	    -39.89856729	   -433.99548340	   -287.78997903	   -702.03452201	      0.00000000	      0.00000000	     -0.00000000	  -3488.51405479	      0.00000000	     -0.00000000	      0.00000000	      0.00000000	      0.00000000	      0.00000000	      0.00000000	      0.00000000	      0.00000000
      0.07000000	      0.00000000	     -0.00000000	      0.00000000	      0.00000000	      0.00000000	      0.00000000	      0.00000000	      0.00000000	      0.00000000	     -1.70992386	     39.23650360	   -470.94042969	   -286.70954996	  -1046.06593149	      0.00000000	      0.00000000	      0.00000000	   2861.87493415	      1.02193223	    -39.74475870	   -435.46896362	   -287.93020149	   -701.58060961	      0.00000000	      0.00000000	     -0.00000000	  -3449.67518919	      0.00000000	     -0.00000000	      0.00000000	      0.00000000	      0.00000000	      0.00000000	      0.00000000	      0.00000000	      0.00000000
      0.08000000	      0.00000000	     -0.00000000	      0.00000000	      0.00000000	      0.00000000	      0.00000000	      0.00000000	      0.00000000	      0.00000000	     -1.46965814	     39.24081802	   -471.40234375	   -285.95535781	  -1045.90410096	      0.00000000	      0.00000000	      0.00000000	   2884.95468078	      1.45782147	    -39.76390470	   -435.92352295	   -287.74817426	   -702.25656564	      0.00000000	      0.00000000	     -0.00000000	  -3508.64077791	      0.00000000	     -0.00000000	      0.00000000	      0.00000000	      0.00000000	      0.00000000	      0.00000000	      0.00000000	      0.00000000
      0.09000000	      0.00000000	     -0.00000000	      0.00000000	      0.00000000	      0.00000000	      0.00000000	      0.00000000	      0.00000000	      0.00000000	     -1.45616615	     39.52673721	   -470.67483521	   -286.42011952	  -1045.89462547	      0.00000000	      0.00000000	      0.00000000	   2858.88062027	      1.10663230	    -40.11677179	   -437.26815796	   -287.93389343	   -701.00187028	      0.00000000	      0.00000000	     -0.00000000	  -3526.70523294	      0.00000000	     -0.00000000	      0.00000000	      0.00000000	      0.00000000	      0.00000000	      0.00000000	      0.00000000	      0.00000000
      0.10000000	      0.00000000	     -0.00000000	      0.00000000	      0.00000000	      0.00000000	      0.00000000	      0.00000000	      0.00000000	      0.00000000	     -1.56402695	     38.99739456	   -468.43304443	   -286.18766048	  -1045.15379540	      0.00000000	      0.00000000	      0.00000000	   2954.93199407	      1.01767801	    -39.72143945	   -434.43679810	   -287.23425957	   -702.63080419	      0.00000000	      0.00000000	     -0.00000000	  -3431.56399928	      0.00000000	     -0.00000000	      0.00000000	      0.00000000	      0.00000000	      0.00000000	      0.00000000	      0.00000000	      0.00000000
